<svg width="24" height="25" viewBox="0 0 24 25" fill="none" xmlns="http://www.w3.org/2000/svg">
<mask id="mask0_235_1110" style="mask-type:alpha" maskUnits="userSpaceOnUse" x="0" y="0" width="24" height="25">
<rect y="0.934875" width="24" height="24" fill="#D9D9D9"/>
</mask>
<g mask="url(#mask0_235_1110)">
<path d="M14 13.9349C13.1667 13.9349 12.4583 13.6432 11.875 13.0599C11.2917 12.4765 11 11.7682 11 10.9349C11 10.1015 11.2917 9.39321 11.875 8.80988C12.4583 8.22654 13.1667 7.93488 14 7.93488C14.8333 7.93488 15.5417 8.22654 16.125 8.80988C16.7083 9.39321 17 10.1015 17 10.9349C17 11.7682 16.7083 12.4765 16.125 13.0599C15.5417 13.6432 14.8333 13.9349 14 13.9349ZM7 16.9349C6.45 16.9349 5.97917 16.739 5.5875 16.3474C5.19583 15.9557 5 15.4849 5 14.9349V6.93488C5 6.38488 5.19583 5.91404 5.5875 5.52238C5.97917 5.13071 6.45 4.93488 7 4.93488H21C21.55 4.93488 22.0208 5.13071 22.4125 5.52238C22.8042 5.91404 23 6.38488 23 6.93488V14.9349C23 15.4849 22.8042 15.9557 22.4125 16.3474C22.0208 16.739 21.55 16.9349 21 16.9349H7ZM9 14.9349H19C19 14.3849 19.1958 13.914 19.5875 13.5224C19.9792 13.1307 20.45 12.9349 21 12.9349V8.93488C20.45 8.93488 19.9792 8.73904 19.5875 8.34738C19.1958 7.95571 19 7.48488 19 6.93488H9C9 7.48488 8.80417 7.95571 8.4125 8.34738C8.02083 8.73904 7.55 8.93488 7 8.93488V12.9349C7.55 12.9349 8.02083 13.1307 8.4125 13.5224C8.80417 13.914 9 14.3849 9 14.9349ZM20 20.9349H3C2.45 20.9349 1.97917 20.739 1.5875 20.3474C1.19583 19.9557 1 19.4849 1 18.9349V7.93488H3V18.9349H20V20.9349Z" fill="#5ACFA5"/>
</g>
</svg>
